HIERARCHY
ROOT Hips
{
  OFFSET 0.000000 0.000000 0.000000
  CHANNELS 6 Xposition Yposition Zposition Xrotation Yrotation Zrotation
  JOINT Spine
  {
    OFFSET 0.762862 23.197727 -6.058858
    CHANNELS 3 Xrotation Yrotation Zrotation
    JOINT Chest
    {
      OFFSET 0.762862 23.197727 -6.058858
      CHANNELS 3 Xrotation Yrotation Zrotation
      JOINT Neck
      {
        OFFSET -0.270074 9.229822 -3.797407
        CHANNELS 3 Xrotation Yrotation Zrotation
        JOINT Head
        {
          OFFSET 0.225285 8.430608 -7.939136
          CHANNELS 3 Xrotation Yrotation Zrotation
          End Site
          {
            OFFSET 0.067585 2.529182 -2.381741
          }
        }
      }
      JOINT LeftShoulder
      {
        OFFSET 17.595006 0.044015 0.996102
        CHANNELS 3 Xrotation Yrotation Zrotation
        JOINT LeftArm
        {
          OFFSET 3.473531 -23.049457 3.982832
          CHANNELS 3 Xrotation Yrotation Zrotation
          JOINT LeftForeArm
          {
            OFFSET 3.218371 -22.980839 -10.241008
            CHANNELS 3 Xrotation Yrotation Zrotation
            JOINT LeftHand
            {
              OFFSET -0.008887 -5.924601 -2.989147
              CHANNELS 3 Xrotation Yrotation Zrotation
              End Site
              {
                OFFSET -0.002666 -1.777380 -0.896744
              }
            }
          }
        }
      }
      JOINT RightShoulder
      {
        OFFSET -17.595006 -0.044015 -0.996102
        CHANNELS 3 Xrotation Yrotation Zrotation
        JOINT RightArm
        {
          OFFSET -5.553442 -24.118242 6.751946
          CHANNELS 3 Xrotation Yrotation Zrotation
          JOINT RightForeArm
          {
            OFFSET -3.099014 -24.977112 -8.059516
            CHANNELS 3 Xrotation Yrotation Zrotation
            JOINT RightHand
            {
              OFFSET 0.298828 -5.701374 -2.573080
              CHANNELS 3 Xrotation Yrotation Zrotation
              End Site
              {
                OFFSET 0.089648 -1.710412 -0.771924
              }
            }
          }
        }
      }
    }
  }
  JOINT LeftUpLeg
  {
    OFFSET 11.990773 -0.614304 0.788698
    CHANNELS 3 Xrotation Yrotation Zrotation
    JOINT LeftLeg
    {
      OFFSET -5.144974 -41.347031 -0.530598
      CHANNELS 3 Xrotation Yrotation Zrotation
      JOINT LeftFoot
      {
        OFFSET 2.709190 -35.138144 18.775504
        CHANNELS 3 Xrotation Yrotation Zrotation
        End Site
        {
          OFFSET 0.812757 -10.541443 5.632651
        }
      }
    }
  }
  JOINT RightUpLeg
  {
    OFFSET -11.990773 0.614304 -0.788698
    CHANNELS 3 Xrotation Yrotation Zrotation
    JOINT RightLeg
    {
      OFFSET 0.284998 -37.357294 5.081156
      CHANNELS 3 Xrotation Yrotation Zrotation
      JOINT RightFoot
      {
        OFFSET 4.690763 -28.563407 28.545631
        CHANNELS 3 Xrotation Yrotation Zrotation
        End Site
        {
          OFFSET 1.407229 -8.569022 8.563689
        }
      }
    }
  }
}
MOTION
Frames: 7
Frame Time: 0.083333
-6.171666 66.863591 -22.156557 2.295536 0.382660 1.840840 0.000000 0.000000 0.000000 -0.995058 -0.378820 -1.943621 -0.208111 0.092320 0.243095 5.000000 0.000000 0.000000 4.391926 1.543853 6.055904 -4.442225 -0.534621 -7.258735 98.818138 8.551931 -0.205098 0.000000 0.000000 0.000000 5.484480 -1.181191 2.006495 -5.508333 1.245922 -1.524972 96.011282 19.662706 -1.139001 0.000000 0.000000 0.000000 -2.285921 -0.292955 -2.567872 -5.618151 3.169328 7.734555 0.000000 0.000000 0.000000 1.680545 0.119578 0.484732 10.692470 1.898237 -1.478343 0.000000 0.000000 0.000000
-5.336803 67.228497 -20.407721 5.508872 -0.037949 0.557967 0.000000 0.000000 0.000000 -4.037060 0.051710 -0.600290 -0.237228 0.230919 0.385270 5.000000 0.000000 0.000000 7.331585 1.887366 7.792403 -1.230013 -0.763395 -9.672916 97.587031 20.401498 -0.318116 0.000000 0.000000 0.000000 4.563986 -1.391315 0.276661 -3.770288 1.143251 -0.110689 95.941619 19.691493 -1.054917 0.000000 0.000000 0.000000 -4.333101 -0.321919 -0.543779 -11.023475 2.628554 5.275227 0.000000 0.000000 0.000000 0.042132 0.538102 2.156373 6.245728 1.121923 -2.918802 0.000000 0.000000 0.000000
-3.928899 67.520624 -19.623603 10.202812 -0.376532 -0.292531 0.000000 0.000000 0.000000 -8.751354 0.439877 0.550608 -0.167757 0.331910 0.345723 5.000000 0.000000 0.000000 9.611614 2.034987 9.084202 1.814285 -1.031724 -11.462445 96.309379 28.270207 2.333280 0.000000 0.000000 0.000000 4.654550 -1.755611 -0.718459 -3.433975 1.306171 0.639026 96.271794 17.142533 -0.149457 0.000000 0.000000 0.000000 -5.739012 -0.274119 -0.632615 -10.686245 2.547272 5.374765 0.000000 0.000000 0.000000 -1.006118 0.578764 1.980298 -4.602818 -0.129392 -2.596647 0.000000 0.000000 0.000000
-2.752041 67.865516 -18.810687 11.705195 -0.434610 -0.368515 0.000000 0.000000 0.000000 -10.003891 0.584708 0.923217 -0.109585 0.324794 0.198077 5.000000 0.000000 0.000000 11.694926 2.016118 9.710431 4.966839 -1.337083 -12.461486 96.429404 32.997805 3.356531 0.000000 0.000000 0.000000 4.620759 -2.141677 -1.782434 -3.231706 1.459624 1.416372 96.474559 14.093946 0.410942 0.000000 0.000000 0.000000 -6.342371 -0.266607 -1.840301 -13.209943 1.730237 5.307894 0.000000 0.000000 0.000000 -1.985909 0.508484 0.703995 -2.707963 -0.409638 -1.614414 0.000000 0.000000 0.000000
-2.487225 67.779501 -17.233415 12.649261 -0.383118 0.170021 0.000000 0.000000 0.000000 -10.600644 0.762382 0.750273 -0.010140 0.318032 0.013128 5.000000 0.000000 0.000000 13.410705 1.944867 10.096740 3.590213 -1.056673 -13.440921 96.089537 35.860966 3.246333 0.000000 0.000000 0.000000 4.269411 -2.234844 -2.365811 -2.973434 1.375641 1.833515 0.000000 0.000000 0.000000 0.000000 0.000000 0.000000 -4.890735 -0.424588 -4.075155 -19.899630 0.295515 5.357610 0.000000 0.000000 0.000000 -2.230478 0.401621 -0.677450 0.000000 0.000000 0.000000 0.000000 0.000000 0.000000
-3.052059 67.361437 -15.779062 13.057281 -0.249997 1.187002 0.000000 0.000000 0.000000 -11.089369 0.926787 0.028000 0.055109 0.204995 -0.298017 5.000000 0.000000 0.000000 13.095754 1.903581 10.079336 2.461046 -0.897253 -13.594536 99.228245 15.957101 2.118943 0.000000 0.000000 0.000000 5.579286 -2.491163 -2.048837 -3.781368 1.536079 1.636269 0.000000 0.000000 0.000000 0.000000 0.000000 0.000000 -1.518064 -0.830223 -5.538510 -24.655221 0.067150 6.257967 0.000000 0.000000 0.000000 -2.527795 0.323037 -1.549768 0.000000 0.000000 0.000000 0.000000 0.000000 0.000000
-4.253848 67.810267 -16.989819 12.975836 -0.143090 1.897913 0.000000 0.000000 0.000000 -11.016342 0.970718 -0.639551 0.058905 0.157519 -0.385247 5.000000 0.000000 0.000000 11.949167 1.769417 8.707266 0.268629 -0.622933 -12.256321 98.963279 16.820191 0.740195 0.000000 0.000000 0.000000 7.437962 -2.772217 -1.208843 -5.047727 1.792164 0.836683 96.287723 11.650152 0.953922 0.000000 0.000000 0.000000 -0.544262 -1.091296 -4.865477 -23.203846 -0.040784 4.332259 0.000000 0.000000 0.000000 -1.087964 0.156692 -1.755933 0.000000 0.000000 0.000000 0.000000 0.000000 0.000000
